<?xml version="1.0" standalone="no"?>
<!DOCTYPE svg PUBLIC "-//W3C//DTD SVG 20010904//EN"
 "http://www.w3.org/TR/2001/REC-SVG-20010904/DTD/svg10.dtd">
<svg version="1.0" xmlns="http://www.w3.org/2000/svg"
 width="700.000000pt" height="700.000000pt" viewBox="0 0 700.000000 700.000000"
 preserveAspectRatio="xMidYMid meet">
<metadata>
Created by potrace 1.11, written by Peter Selinger 2001-2013
</metadata>
<g transform="translate(0.000000,700.000000) scale(0.100000,-0.100000)"
fill="#000000" stroke="none">
<path d="M2594 6883 l1 -118 -1110 0 c-611 0 -1118 -2 -1128 -4 -16 -3 -17
-167 -15 -3324 l3 -3322 1655 1 1655 0 16 -36 c22 -48 50 -71 97 -77 45 -6 74
9 137 72 l40 41 975 -1 c536 -1 980 1 986 2 7 3 10 222 9 711 0 389 3 721 6
737 5 22 93 116 348 370 251 250 348 353 366 389 31 62 33 133 4 195 -22 51
-226 264 -242 254 -6 -3 -7 -2 -4 4 8 13 -157 174 -203 199 -24 12 -57 18
-105 18 -59 0 -77 -4 -112 -27 -24 -15 -46 -27 -50 -27 -5 0 -8 859 -7 1910 0
1339 -3 1910 -10 1911 -6 0 -513 1 -1126 2 l-1115 2 -2 100 c-1 55 -2 108 -2
118 -1 16 -33 17 -534 17 l-534 0 1 -117z"/>
</g>
</svg>
